<svg width="128" height="128" viewBox="0 0 128 128" fill="none" xmlns="http://www.w3.org/2000/svg">
<path d="M73.0871 30.1941C75.2157 26.2461 80.1737 24.8192 84.0753 27.0318L86.6376 28.4849C90.5925 30.7277 91.8856 35.8115 89.4829 39.6713L70.8718 69.5704C68.6003 73.2196 63.8512 74.4215 60.1172 72.2923L59.4636 71.9195C55.6898 69.7676 54.3231 64.9973 56.3847 61.1735L73.0871 30.1941Z" stroke="black" stroke-width="6"/>
<path d="M58.6517 73.8132C64.7999 77.2999 66.8696 85.2656 63.2744 91.6052C59.9113 97.5355 52.5175 101.975 46.1191 102.139C38.228 103.082 37.4598 95.7867 40.9418 93.7557C47.9192 89.6856 37.5541 85.0722 42.5442 76.2728C46.1394 69.9333 52.5034 70.3265 58.6517 73.8132Z" stroke="black" stroke-width="6"/>
</svg>
