<svg width="74" height="74" viewBox="0 0 74 74" fill="none" xmlns="http://www.w3.org/2000/svg">
<path fill-rule="evenodd" clip-rule="evenodd" d="M27.0326 20C28.5514 20 29.7826 21.1939 29.7826 22.6667V33.6872C29.7826 35.4613 30.6941 36.8994 32.5326 36.8994C34.3712 36.8994 34.9932 35.4613 34.9932 33.6872V30.7496C34.9932 30.0579 35.5714 29.4972 36.2847 29.4972H39.067C41.4534 29.4972 43.3879 31.3731 43.3879 33.6872C43.3879 39.9351 39.0075 45 32.5326 45C26.0578 45 21.3879 39.9351 21.3879 33.6872V22.6667C21.3879 21.1939 22.6191 20 24.1379 20H27.0326Z" fill="#DEDEDE"/>
<path d="M35.1379 22.6667C35.1379 21.1939 36.3691 20 37.8879 20H40.6379C42.1567 20 43.3879 21.1939 43.3879 22.6667V27C43.3879 27.7364 42.7723 28.3333 42.0129 28.3333H39.578C37.1258 28.3333 35.1379 26.4057 35.1379 24.0278V22.6667Z" fill="#DEDEDE"/>
<path fill-rule="evenodd" clip-rule="evenodd" d="M49.7984 13.4481C39.8677 3.51731 23.7667 3.51731 13.836 13.4481C3.90522 23.3788 3.90522 39.4797 13.836 49.4105C23.7667 59.3412 39.8677 59.3412 49.7984 49.4105C59.7292 39.4797 59.7292 23.3788 49.7984 13.4481ZM9.59333 9.20542C21.8672 -3.06847 41.7671 -3.06847 54.041 9.20542C66.3149 21.4793 66.3149 41.3792 54.041 53.6531C41.7671 65.927 21.8672 65.927 9.59333 53.6531C-2.68056 41.3792 -2.68056 21.4793 9.59333 9.20542ZM56.9908 56.6029C58.1624 55.4313 60.0618 55.4313 61.2334 56.6029L72.7334 68.1029C73.905 69.2745 73.905 71.1739 72.7334 72.3455C71.5619 73.5171 69.6624 73.5171 68.4908 72.3455L56.9908 60.8455C55.8192 59.674 55.8192 57.7745 56.9908 56.6029Z" fill="#DEDEDE"/>
</svg>
