<svg width="16" height="16" viewBox="0 0 16 16" fill="none" xmlns="http://www.w3.org/2000/svg">
<path fill-rule="evenodd" clip-rule="evenodd" d="M10.7965 10.7965C12.9665 8.6266 12.9665 5.10843 10.7965 2.9385C8.6266 0.768557 5.10843 0.768557 2.9385 2.9385C0.768557 5.10843 0.768557 8.6266 2.9385 10.7965C5.10843 12.9665 8.6266 12.9665 10.7965 10.7965ZM11.7236 2.01145C14.4055 4.69338 14.4055 9.04165 11.7236 11.7236C9.04165 14.4055 4.69338 14.4055 2.01145 11.7236C-0.670483 9.04165 -0.670483 4.69338 2.01145 2.01145C4.69338 -0.670483 9.04165 -0.670483 11.7236 2.01145Z" fill="#5B5B5B"/>
<path fill-rule="evenodd" clip-rule="evenodd" d="M4.81821 9.40686C4.56222 9.66286 4.14716 9.66286 3.89117 9.40686C2.47336 7.98905 2.43463 5.69509 3.84636 4.28337C4.10235 4.02737 4.51741 4.02737 4.7734 4.28337C5.0294 4.53936 5.0294 4.95442 4.7734 5.21041C3.89224 6.09158 3.89364 7.55523 4.81821 8.47981C5.07421 8.73581 5.07421 9.15086 4.81821 9.40686Z" fill="#5B5B5B"/>
<path fill-rule="evenodd" clip-rule="evenodd" d="M12.3681 12.3681C12.6241 12.1121 13.0392 12.1121 13.2952 12.3681L15.808 14.881C16.064 15.137 16.064 15.552 15.808 15.808C15.552 16.064 15.137 16.064 14.881 15.808L12.3681 13.2952C12.1121 13.0392 12.1121 12.6241 12.3681 12.3681Z" fill="#5B5B5B"/>
</svg>
